<svg width="25" height="25" viewBox="0 0 25 25" fill="none" xmlns="http://www.w3.org/2000/svg">
<circle cx="12.5" cy="12.5" r="11.5" stroke="#654DCB" stroke-width="2"/>
<path d="M11.728 15.968C11.7067 15.9893 11.7013 16.0107 11.712 16.032C11.7227 16.0533 11.744 16.064 11.776 16.064H16.112C16.1653 16.064 16.208 16.0853 16.24 16.128C16.2827 16.16 16.304 16.2027 16.304 16.256V17.808C16.304 17.8613 16.2827 17.9093 16.24 17.952C16.208 17.984 16.1653 18 16.112 18H8.912C8.85867 18 8.81067 17.984 8.768 17.952C8.736 17.9093 8.72 17.8613 8.72 17.808V16.336C8.72 16.24 8.752 16.16 8.816 16.096C9.33867 15.584 9.872 15.0293 10.416 14.432C10.96 13.824 11.3013 13.4453 11.44 13.296C11.7387 12.944 12.0427 12.608 12.352 12.288C13.3227 11.2107 13.808 10.4107 13.808 9.888C13.808 9.51467 13.6747 9.21067 13.408 8.976C13.1413 8.73067 12.7947 8.608 12.368 8.608C11.9413 8.608 11.5947 8.73067 11.328 8.976C11.0613 9.21067 10.928 9.52533 10.928 9.92V10.32C10.928 10.3733 10.9067 10.4213 10.864 10.464C10.832 10.496 10.7893 10.512 10.736 10.512H8.848C8.79467 10.512 8.74667 10.496 8.704 10.464C8.672 10.4213 8.656 10.3733 8.656 10.32V9.568C8.688 8.992 8.86933 8.48533 9.2 8.048C9.53067 7.6 9.968 7.25867 10.512 7.024C11.0667 6.78933 11.6853 6.672 12.368 6.672C13.1253 6.672 13.7813 6.816 14.336 7.104C14.9013 7.38133 15.3333 7.76 15.632 8.24C15.9413 8.72 16.096 9.25333 16.096 9.84C16.096 10.288 15.984 10.7467 15.76 11.216C15.536 11.6853 15.2 12.192 14.752 12.736C14.4213 13.152 14.064 13.5627 13.68 13.968C13.296 14.3733 12.7253 14.96 11.968 15.728L11.728 15.968Z" fill="#654DCB"/>
</svg>
