<svg width="25" height="25" viewBox="0 0 25 25" fill="none" xmlns="http://www.w3.org/2000/svg">
<path fill-rule="evenodd" clip-rule="evenodd" d="M6.7152 2.35464C7.71225 2.27504 8.65876 1.88287 9.41995 1.23399C10.2797 0.501758 11.3721 0.0996094 12.5013 0.0996094C13.6306 0.0996094 14.723 0.501758 15.5827 1.23399C16.3439 1.88287 17.2904 2.27504 18.2875 2.35464C19.4135 2.44463 20.4706 2.93273 21.2693 3.73145C22.068 4.53017 22.5561 5.58727 22.6461 6.71324C22.7251 7.70989 23.1173 8.65694 23.7667 9.41799C24.499 10.2777 24.9011 11.3701 24.9011 12.4994C24.9011 13.6287 24.499 14.7211 23.7667 15.5808C23.1179 16.342 22.7257 17.2885 22.6461 18.2855C22.5561 19.4115 22.068 20.4686 21.2693 21.2673C20.4706 22.0661 19.4135 22.5542 18.2875 22.6441C17.2904 22.7237 16.3439 23.1159 15.5827 23.7648C14.723 24.497 13.6306 24.8992 12.5013 24.8992C11.3721 24.8992 10.2797 24.497 9.41995 23.7648C8.65876 23.1159 7.71225 22.7237 6.7152 22.6441C5.58923 22.5542 4.53213 22.0661 3.73341 21.2673C2.93469 20.4686 2.44658 19.4115 2.35659 18.2855C2.27699 17.2885 1.88482 16.342 1.23595 15.5808C0.503711 14.7211 0.101562 13.6287 0.101562 12.4994C0.101562 11.3701 0.503711 10.2777 1.23595 9.41799C1.88482 8.65681 2.27699 7.71029 2.35659 6.71324C2.44658 5.58727 2.93469 4.53017 3.73341 3.73145C4.53213 2.93273 5.58923 2.44463 6.7152 2.35464V2.35464ZM18.2472 10.4952C18.5295 10.2029 18.6858 9.81138 18.6822 9.40497C18.6787 8.99857 18.5157 8.60981 18.2283 8.32242C17.9409 8.03504 17.5522 7.87203 17.1458 7.8685C16.7394 7.86497 16.3478 8.0212 16.0555 8.30354L10.9513 13.4077L8.9472 11.4035C8.65486 11.1212 8.26333 10.965 7.85692 10.9685C7.45052 10.972 7.06176 11.135 6.77438 11.4224C6.48699 11.7098 6.32398 12.0986 6.32045 12.505C6.31692 12.9114 6.47315 13.3029 6.7555 13.5952L9.8555 16.6952C10.1462 16.9858 10.5403 17.1491 10.9513 17.1491C11.3624 17.1491 11.7565 16.9858 12.0472 16.6952L18.2472 10.4952V10.4952Z" fill="#50BE80"/>
</svg>
