<svg width="25" height="25" viewBox="0 0 25 25" fill="none" xmlns="http://www.w3.org/2000/svg">
<circle cx="12.5" cy="12.5" r="11.5" stroke="#654DCB" stroke-width="2"/>
<path d="M11.4 6.848C11.4533 6.816 11.5333 6.8 11.64 6.8H13.576C13.6293 6.8 13.672 6.82133 13.704 6.864C13.7467 6.896 13.768 6.93867 13.768 6.992V17.808C13.768 17.8613 13.7467 17.9093 13.704 17.952C13.672 17.984 13.6293 18 13.576 18H11.704C11.6507 18 11.6027 17.984 11.56 17.952C11.528 17.9093 11.512 17.8613 11.512 17.808V9.04C11.512 9.01867 11.5013 8.99733 11.48 8.976C11.4587 8.95467 11.4373 8.94933 11.416 8.96L9.832 9.392L9.768 9.408C9.672 9.408 9.624 9.34933 9.624 9.232L9.576 7.856C9.576 7.74933 9.624 7.67467 9.72 7.632L11.4 6.848Z" fill="#654DCB"/>
</svg>
