<svg width="25" height="25" viewBox="0 0 25 25" fill="none" xmlns="http://www.w3.org/2000/svg">
<circle cx="12.5" cy="12.5" r="11.5" stroke="#654DCB" stroke-width="2"/>
<path d="M15.632 12.656C15.8453 13.1467 15.952 13.712 15.952 14.352C15.952 14.928 15.856 15.4613 15.664 15.952C15.408 16.6347 14.976 17.168 14.368 17.552C13.7707 17.936 13.0613 18.128 12.24 18.128C11.4293 18.128 10.7147 17.9253 10.096 17.52C9.488 17.1147 9.05067 16.5653 8.784 15.872C8.63467 15.456 8.54933 15.008 8.528 14.528C8.528 14.4 8.592 14.336 8.72 14.336H10.608C10.736 14.336 10.8 14.4 10.8 14.528C10.8427 14.88 10.9013 15.1413 10.976 15.312C11.072 15.5893 11.2267 15.808 11.44 15.968C11.664 16.1173 11.9253 16.192 12.224 16.192C12.8213 16.192 13.232 15.9307 13.456 15.408C13.6053 15.088 13.68 14.7147 13.68 14.288C13.68 13.7867 13.6 13.376 13.44 13.056C13.1947 12.5547 12.784 12.304 12.208 12.304C12.0907 12.304 11.968 12.3413 11.84 12.416C11.712 12.48 11.5573 12.576 11.376 12.704C11.3333 12.736 11.2907 12.752 11.248 12.752C11.184 12.752 11.136 12.72 11.104 12.656L10.16 11.328C10.1387 11.296 10.128 11.2587 10.128 11.216C10.128 11.152 10.1493 11.0987 10.192 11.056L12.736 8.832C12.7573 8.81067 12.7627 8.78933 12.752 8.768C12.752 8.74667 12.736 8.736 12.704 8.736H8.944C8.89067 8.736 8.84267 8.72 8.8 8.688C8.768 8.64533 8.752 8.59733 8.752 8.544V6.992C8.752 6.93867 8.768 6.896 8.8 6.864C8.84267 6.82133 8.89067 6.8 8.944 6.8H15.616C15.6693 6.8 15.712 6.82133 15.744 6.864C15.7867 6.896 15.808 6.93867 15.808 6.992V8.752C15.808 8.83733 15.7707 8.91733 15.696 8.992L13.6 10.912C13.5787 10.9333 13.568 10.9547 13.568 10.976C13.5787 10.9973 13.6053 11.008 13.648 11.008C14.576 11.1893 15.2373 11.7387 15.632 12.656Z" fill="#654DCB"/>
</svg>
