<svg width="27" height="27" viewBox="0 0 27 27" fill="none" xmlns="http://www.w3.org/2000/svg">
<path d="M9.62395 13.5009L12.2073 16.0842L17.374 10.9176M8.11916 4.06786C9.04568 3.99392 9.92527 3.6296 10.6327 3.02678C11.4322 2.34513 12.4484 1.9707 13.499 1.9707C14.5495 1.9707 15.5657 2.34513 16.3652 3.02678C17.0726 3.6296 17.9522 3.99392 18.8787 4.06786C19.926 4.15118 20.9092 4.60497 21.6521 5.34781C22.3949 6.09064 22.8487 7.07389 22.932 8.12111C23.0059 9.04764 23.3703 9.92723 23.9731 10.6347C24.6547 11.4341 25.0292 12.4503 25.0292 13.5009C25.0292 14.5515 24.6547 15.5677 23.9731 16.3671C23.3703 17.0746 23.0059 17.9542 22.932 18.8807C22.8487 19.9279 22.3949 20.9112 21.6521 21.654C20.9092 22.3968 19.926 22.8506 18.8787 22.9339C17.9522 23.0079 17.0726 23.3722 16.3652 23.975C15.5657 24.6567 14.5495 25.0311 13.499 25.0311C12.4484 25.0311 11.4322 24.6567 10.6327 23.975C9.92527 23.3722 9.04568 23.0079 8.11916 22.9339C7.07194 22.8506 6.08869 22.3968 5.34585 21.654C4.60302 20.9112 4.14923 19.9279 4.06591 18.8807C3.99196 17.9542 3.62765 17.0746 3.02483 16.3671C2.34318 15.5677 1.96875 14.5515 1.96875 13.5009C1.96875 12.4503 2.34318 11.4341 3.02483 10.6347C3.62765 9.92723 3.99196 9.04764 4.06591 8.12111C4.14923 7.07389 4.60302 6.09064 5.34585 5.34781C6.08869 4.60497 7.07194 4.15118 8.11916 4.06786V4.06786Z" stroke="#63C58E" stroke-width="2" stroke-linecap="round" stroke-linejoin="round"/>
</svg>
