<svg width="24" height="24" viewBox="0 0 24 24" fill="none" xmlns="http://www.w3.org/2000/svg">
<path d="M14.0739 11.7565L19.7127 6.23228C20.0875 5.85692 20.0875 5.25309 19.7127 4.87773L19.0213 4.20046C18.6382 3.82511 18.0219 3.82511 17.6387 4.20046L12 9.72472L6.36127 4.20046C5.97814 3.82511 5.36179 3.82511 4.97866 4.20046L4.28735 4.87773C3.90422 5.25309 3.90422 5.85692 4.28735 6.23228L9.92608 11.7565L4.28735 17.2808C3.90422 17.6561 3.90422 18.26 4.28735 18.6353L4.97866 19.3126C5.36179 19.688 5.97814 19.688 6.36127 19.3126L12 13.7883L17.6387 19.3126C18.0219 19.688 18.6382 19.688 19.0213 19.3126L19.7127 18.6353C20.0958 18.26 20.0958 17.6561 19.7127 17.2808L14.0739 11.7565Z" fill="white"/>
</svg>
